<!DOCTYPE svg PUBLIC "-//W3C//DTD SVG 1.1//EN" "http://www.w3.org/Graphics/SVG/1.1/DTD/svg11.dtd">
<!-- Uploaded to: SVG Repo, www.svgrepo.com, Transformed by: SVG Repo Mixer Tools -->
<svg fill="#ffffff" version="1.1" id="Capa_1" xmlns="http://www.w3.org/2000/svg" xmlns:xlink="http://www.w3.org/1999/xlink" width="800px" height="800px" viewBox="-34.77 -34.77 417.22 417.22" xml:space="preserve" stroke="#ffffff">
<g id="SVGRepo_bgCarrier" stroke-width="0" transform="translate(0,0), scale(1)">
<path transform="translate(-34.77, -34.77), scale(26.07625)" fill="#f9d10b" d="M9.166.33a2.25 2.25 0 00-2.332 0l-5.25 3.182A2.25 2.25 0 00.5 5.436v5.128a2.25 2.25 0 001.084 1.924l5.25 3.182a2.25 2.25 0 002.332 0l5.25-3.182a2.25 2.25 0 001.084-1.924V5.436a2.25 2.25 0 00-1.084-1.924L9.166.33z" strokewidth="0"/>
</g>
<g id="SVGRepo_tracerCarrier" stroke-linecap="round" stroke-linejoin="round" stroke="#CCCCCC" stroke-width="3.47678"/>
<g id="SVGRepo_iconCarrier"> <g> <g> <g> <path d="M195.234,186.377l1.08,0.349l120.276,39.655l-3.459-38.581l-117.897-79.389V23.17c0-12.778-11.797-23.17-26.289-23.17 c-14.505,0-26.301,10.392-26.301,23.17v89.084l-0.354,0.24l-107.804,75.33l-3.399,42.761l111.566-41.373v102.945l-0.357,0.276 l-39.334,26.913v28.331l55.277-18.987l24.302,0.042l56.127,17.685v-25.532l-43.421-28.476V186.377H195.234z"/> </g> </g> </g> </g>
</svg>